<svg version="1" xmlns="http://www.w3.org/2000/svg" width="28" height="28" viewBox="0 0 28 28"><path fill="#fff" d="M20.125 19.25c.236 0 .441.087.615.26.173.174.26.379.26.615 0 .255-.087.465-.26.629-.174.164-.379.246-.615.246h-12.25c-.255 0-.465-.082-.629-.246s-.246-.374-.246-.629c0-.236.082-.441.246-.615.164-.173.374-.26.629-.26h12.25zm-5.469-2.023c-.183.183-.393.273-.629.273-.237 0-.438-.091-.602-.273l-2.789-2.762c-.219-.219-.219-.428 0-.629.2-.2.4-.2.602 0l2.324 2.324v-8.722c0-.292.146-.438.438-.438.291 0 .438.146.438.438v8.777l2.379-2.379c.2-.2.41-.2.629 0 .2.201.2.41 0 .629l-2.79 2.762z"/></svg>