<svg version="1" xmlns="http://www.w3.org/2000/svg" width="24" height="24" viewBox="0 0 24 24"><path fill="#323539" d="M16.742 15.889c-1.508 0-2.869-.897-3.47-2.282-.125-.281.011-.623.294-.747.283-.125.624.011.749.295.418.964 1.372 1.588 2.427 1.588.727 0 1.395-.285 1.895-.807.501-.521.772-1.201.749-1.917-.033-1.35-1.157-2.496-2.507-2.575-.578-.034-1.101.17-1.566.556l-5.866 4.855c-.636.522-1.396.816-2.144.816-1.101 0-2.122-.464-2.848-1.27-.715-.805-1.055-1.883-.93-2.961.192-1.667 1.531-3.052 3.188-3.29 1.667-.238 3.268.613 3.982 2.122.136.283.011.624-.272.76-.283.136-.625.011-.76-.272-.498-1.054-1.611-1.656-2.803-1.486-1.157.17-2.099 1.135-2.223 2.303-.091.771.147 1.509.658 2.078.5.566 1.225.882 1.975.882.499 0 1.009-.202 1.44-.555l5.865-4.855c.681-.567 1.498-.852 2.304-.818 1.996.103 3.562 1.726 3.62 3.676.021 1.033-.352 2.008-1.067 2.745-.703.76-1.668 1.159-2.69 1.159z"/></svg>