<svg version="1" xmlns="http://www.w3.org/2000/svg" width="28" height="28" viewBox="0 0 28 28"><path fill="#fff" d="M9.516 9.152l2.187-2.652.547.52-2.734 3.227-1.641-1.614.547-.574 1.094 1.093zm0 5.086l2.188-2.625.547.52-2.734 3.199-1.641-1.613.547-.52 1.093 1.039zm-1.641 6.262v-3.5h3.5v3.5h-3.5zm.875-2.625v1.75h1.75v-1.75h-1.75zm10.938-9.598c.291 0 .438.146.438.438 0 .109-.041.21-.123.301-.082.092-.188.137-.314.137h-5.223c-.109 0-.21-.045-.301-.137-.092-.091-.137-.191-.137-.301 0-.127.045-.232.137-.314.091-.082.191-.123.301-.123h5.222zm0 5.223c.291 0 .438.146.438.438 0 .109-.041.21-.123.301-.082.092-.188.137-.314.137h-5.223c-.109 0-.21-.045-.301-.137-.092-.091-.137-.191-.137-.301 0-.127.045-.232.137-.314.091-.082.191-.123.301-.123h5.222zm0 5.25c.291 0 .438.146.438.438 0 .109-.041.21-.123.301-.082.092-.188.137-.314.137h-5.223c-.109 0-.21-.045-.301-.137-.092-.091-.137-.191-.137-.301 0-.127.045-.232.137-.314.091-.082.191-.123.301-.123h5.222z"/></svg>