<svg version="1" xmlns="http://www.w3.org/2000/svg" width="24" height="24" viewBox="0 0 24 24"><path stroke="#32363a" stroke-linecap="round" stroke-linejoin="round" d="M18.857 9.711c0 2.52-2.049 4.568-4.568 4.568-2.521 0-4.569-2.048-4.569-4.568s2.048-4.568 4.569-4.568c2.52 0 4.568 2.048 4.568 4.568zM14.289 14.279c.008 2.529-2.041 4.578-4.569 4.586-2.529.01-4.577-2.039-4.586-4.568-.009-2.528 2.04-4.577 4.568-4.585h.018c0 2.519 2.049 4.567 4.569 4.567zM8.143 12.703l3.146 3.154M11.057 12.943l-2.914 2.914M16.654 8.134l-3.154 3.155-1.577-1.578" fill="none"/></svg>