<svg version="1" xmlns="http://www.w3.org/2000/svg" width="28" height="28" viewBox="0 0 28 28"><path fill="#32363a" d="M20.125 19.25c.236 0 .441.087.615.26.173.174.26.379.26.615 0 .255-.087.465-.26.629-.174.164-.379.246-.615.246h-12.25c-.255 0-.465-.082-.629-.246s-.246-.374-.246-.629c0-.236.082-.441.246-.615.164-.173.374-.26.629-.26h12.25zm-2.68-9.215c.2.219.2.429 0 .629-.092.091-.196.137-.314.137-.119 0-.224-.045-.314-.137l-2.379-2.379v8.777c0 .292-.146.438-.438.438-.292 0-.438-.146-.438-.438v-8.722l-2.324 2.324c-.092.091-.191.137-.301.137s-.21-.045-.301-.137c-.219-.2-.219-.41 0-.629l2.789-2.762c.165-.182.365-.273.602-.273.236 0 .446.091.629.273l2.789 2.762z"/></svg>