<svg version="1" xmlns="http://www.w3.org/2000/svg" width="28" height="28" viewBox="0 0 28 28"><path fill="#fff" d="M13.986 20.125c.766 0 1.494-.137 2.188-.41.692-.273 1.308-.643 1.846-1.107.537-.465.979-1.016 1.326-1.654.346-.638.574-1.33.684-2.078h.902c-.109.857-.365 1.659-.766 2.406-.401.748-.912 1.395-1.531 1.941-.62.547-1.326.979-2.119 1.299-.793.318-1.637.478-2.53.478-1.312 0-2.507-.328-3.582-.984-1.076-.656-1.914-1.521-2.516-2.598v1.504c-.019.128-.073.232-.164.314-.091.082-.191.114-.301.096-.128 0-.228-.045-.301-.137-.073-.091-.109-.191-.109-.301v-2.297c.036-.255.141-.46.314-.615.173-.154.387-.232.643-.232l2.297.219c.127 0 .228.046.301.137.073.092.109.191.109.301-.019.146-.073.256-.164.328-.091.073-.191.109-.301.109l-1.694-.164c.492 1.021 1.226 1.851 2.201 2.488.975.638 2.064.957 3.267.957zm0-12.25c-.693 0-1.354.109-1.982.328s-1.199.524-1.709.916c-.511.392-.957.857-1.34 1.395-.383.538-.665 1.116-.848 1.736h-.902c.2-.747.515-1.444.943-2.092.429-.647.939-1.203 1.532-1.668.592-.465 1.253-.829 1.982-1.094.729-.264 1.504-.396 2.324-.396 1.33 0 2.538.333 3.623.998 1.084.666 1.918 1.545 2.502 2.639v-1.559c.018-.127.072-.232.164-.314.091-.082.191-.114.301-.096.127 0 .228.046.301.137.072.091.109.191.109.301v2.297c-.037.255-.142.46-.314.615-.174.155-.379.232-.615.232l-2.324-.219c-.109 0-.205-.045-.287-.137-.082-.091-.123-.191-.123-.301.036-.127.096-.232.178-.314s.187-.114.314-.096l1.668.137c-.511-1.021-1.254-1.85-2.229-2.488-.976-.638-2.065-.957-3.268-.957z"/></svg>